<?xml version="1.0" encoding="UTF-8"?>
<svg width="512px" height="512px" viewBox="0 0 512 512" version="1.1" xmlns="http://www.w3.org/2000/svg" xmlns:xlink="http://www.w3.org/1999/xlink">
    <!-- Generator: Sketch 48.1 (47250) - http://www.bohemiancoding.com/sketch -->
    <title>Group 2</title>
    <desc>Created with Sketch.</desc>
    <defs>
        <linearGradient x1="50%" y1="100%" x2="50%" y2="2.39158163%" id="linearGradient-1">
            <stop stop-color="#6BDBF0" offset="0%"></stop>
            <stop stop-color="#02FFF0" offset="100%"></stop>
        </linearGradient>
    </defs>
    <g id="Page-1" stroke="none" stroke-width="1" fill="none" fill-rule="evenodd">
        <g id="Group-2">
            <rect id="Rectangle" fill="#FFFFFF" x="0" y="0" width="512" height="512" rx="80"></rect>
            <g id="Icon" transform="translate(146.000000, 91.500000)" fill="url(#linearGradient-1)">
                <path d="M148.50522,257.733851 C127.121461,279.118381 92.5348781,279.118381 71.1503475,257.733851 C49.766589,236.350092 49.766589,201.763509 71.1503475,180.37975 C92.5348781,158.99522 127.121461,158.99522 148.50522,180.37975 C169.813322,201.763509 169.813322,236.42652 148.50522,257.733851 M187.183428,141.701542 C172.901341,127.419455 155.685636,117.846597 137.465552,112.982967 L197.37389,53.0754012 C208.027555,42.4225082 208.027555,25.0524021 197.37389,14.3979651 C186.719453,3.74430006 169.349347,3.74430006 158.695682,14.3979651 L35.020527,138.07312 C33.9404924,139.076726 32.8589138,140.081104 31.8553077,141.083938 C-10.8357809,183.775799 -10.6049515,253.334196 32.4729114,296.412059 C75.5507744,339.48915 145.109171,339.720751 187.80026,297.02889 C230.49212,254.337802 230.260519,184.779405 187.183428,141.701542" id="Fill-1"></path>
                <path d="M49.6118793,108.583003 C38.9582142,119.236668 21.5881082,119.236668 10.9344431,108.583003 C0.280778114,97.9293382 0.280778114,80.5592322 10.9344431,69.9055671 L72.8492211,7.99078918 C83.5028861,-2.66287586 100.872992,-2.66287586 111.526657,7.99078918 C122.180322,18.6444542 122.180322,36.0145603 111.526657,46.6682253 L49.6118793,108.583003 Z" id="Fill-4"></path>
            </g>
        </g>
    </g>
</svg>